#N canvas 953 600 958 548 10;
#X obj 520 756 sendOSC;
#X msg 631 707 connect 127.0.0.1 10000;
#X msg 629 736 disconnect;
#X obj 823 22 dumpOSC 10001;
#X obj 61 337 vsl 15 128 0 100 0 0 empty empty empty 0 -9 0 10 -262144
-1 -1 6831 1;
#X obj 823 51 s msg;
#X obj 352 -16 r msg;
#X obj 331 198 r msg;
#X obj 162 334 vsl 15 128 0 100 0 0 empty empty empty 0 -9 0 10 -262144
-1 -1 5364 1;
#X msg 59 492 send /slider1 \$1;
#X msg 167 491 send /slider2 \$1;
#X obj 282 326 vsl 15 128 0 100 0 0 empty empty empty 0 -9 0 10 -262144
-1 -1 2682 1;
#X obj 387 325 vsl 15 128 0 100 0 0 empty empty empty 0 -9 0 10 -262144
-1 -1 1524 1;
#X msg 282 490 send /slider3 \$1;
#X msg 390 489 send /slider4 \$1;
#X obj 329 221 OSCroute /slider1 /slider2 /slider3 /slider4 /slider5
/slider6 /slider7 /slider8 /slider9 /slider10;
#X obj 504 325 vsl 15 128 0 100 0 0 empty empty empty 0 -9 0 10 -262144
-1 -1 189 1;
#X obj 609 324 vsl 15 128 0 100 0 0 empty empty empty 0 -9 0 10 -262144
-1 -1 381 1;
#X obj 732 321 vsl 15 128 0 100 0 0 empty empty empty 0 -9 0 10 -262144
-1 -1 127 1;
#X obj 838 325 vsl 15 128 0 100 0 0 empty empty empty 0 -9 0 10 -262144
-1 -1 0 1;
#X msg 504 489 send /slider5 \$1;
#X msg 612 488 send /slider6 \$1;
#X msg 727 487 send /slider7 \$1;
#X msg 835 486 send /slider8 \$1;
#X obj 946 321 vsl 15 128 0 100 0 0 empty empty empty 0 -9 0 10 -262144
-1 -1 127 1;
#X obj 1053 321 vsl 15 128 0 100 0 0 empty empty empty 0 -9 0 10 -262144
-1 -1 0 1;
#X msg 946 485 send /slider9 \$1;
#X msg 1054 484 send /slider10 \$1;
#X obj 172 114 osc~;
#X obj 42 733 dac~;
#X obj 37 619 osc~;
#X obj 382 841 r msg;
#X obj 394 909 tgl 15 0 empty empty empty 17 7 0 10 -262144 -1 -1 0
1;
#X obj 42 684 *~;
#X obj 391 871 OSCroute /bng1 /bng2 /bng3 /bng4 /bng5 /bng6 /bng7 /bng8
/bng9 /bng10;
#X obj 422 912 tgl 15 0 empty empty empty 17 7 0 10 -262144 -1 -1 0
1;
#X obj 455 912 tgl 15 0 empty empty empty 17 7 0 10 -262144 -1 -1 0
1;
#X obj 490 913 tgl 15 0 empty empty empty 17 7 0 10 -262144 -1 -1 0
1;
#X obj 526 915 tgl 15 0 empty empty empty 17 7 0 10 -262144 -1 -1 0
1;
#X obj 556 916 tgl 15 0 empty empty empty 17 7 0 10 -262144 -1 -1 0
1;
#X obj 590 919 tgl 15 0 empty empty empty 17 7 0 10 -262144 -1 -1 0
1;
#X obj 625 917 tgl 15 0 empty empty empty 17 7 0 10 -262144 -1 -1 0
1;
#X obj 658 918 tgl 15 0 empty empty empty 17 7 0 10 -262144 -1 -1 0
1;
#X obj 693 919 tgl 15 0 empty empty empty 17 7 0 10 -262144 -1 -1 0
1;
#X obj 126 735 dac~;
#X obj 126 686 *~;
#X obj 206 735 dac~;
#X obj 201 621 osc~;
#X obj 206 686 *~;
#X obj 290 737 dac~;
#X obj 290 688 *~;
#X obj 867 763 dac~;
#X obj 862 649 osc~;
#X obj 867 714 *~;
#X obj 951 765 dac~;
#X obj 951 716 *~;
#X obj 1031 765 dac~;
#X obj 1026 651 osc~;
#X obj 1031 716 *~;
#X obj 1115 767 dac~;
#X obj 1115 718 *~;
#X obj 366 741 dac~;
#X obj 361 627 osc~;
#X obj 366 692 *~;
#X obj 797 754 dac~;
#X obj 797 705 *~;
#N canvas 953 0 958 548 cake 1;
#X obj 144 -223 inlet;
#N canvas 1181 558 450 300 note 0;
#X obj 86 45 inlet;
#X floatatom 87 81 5 0 0 0 - - -;
#X obj 146 128 makenote;
#X obj 119 193 outlet;
#X obj 207 191 outlet;
#X msg 153 81 500;
#X obj 182 39 inlet;
#X obj 215 87 * 100;
#X connect 0 0 1 0;
#X connect 0 0 5 0;
#X connect 1 0 2 0;
#X connect 2 0 3 0;
#X connect 2 1 4 0;
#X connect 5 0 2 1;
#X connect 6 0 7 0;
#X connect 7 0 2 2;
#X restore 34 278 pd note;
#X obj 38 335 noteout;
#X floatatom 33 250 5 0 0 0 - - -;
#X obj 36 220 + 60;
#X floatatom 98 250 5 0 0 0 - - -;
#X obj 101 220 + 62;
#X floatatom 176 251 5 0 0 0 - - -;
#X floatatom 238 250 5 0 0 0 - - -;
#X obj 241 220 + 65;
#X floatatom 301 248 5 0 0 0 - - -;
#X obj 304 218 + 67;
#X floatatom 363 249 5 0 0 0 - - -;
#X obj 366 219 + 69;
#X floatatom 423 249 5 0 0 0 - - -;
#X obj 426 219 + 72;
#X floatatom 491 247 5 0 0 0 - - -;
#X obj 494 217 + 74;
#X floatatom 560 250 5 0 0 0 - - -;
#X floatatom 633 247 5 0 0 0 - - -;
#X obj 169 219 + 59;
#X obj 553 214 + 83;
#X obj 623 217 + 79;
#X obj 144 -187 OSCroute /Piece1 /Piece2 /Piece3 /Piece4 /Piece5 /Piece6
/Piece7 /Piece8 /Piece9 /Piece10;
#X obj 131 485 inlet;
#X obj 187 495 OSCroute /note1 /note2 /note3 /note4 /note5 /note6 /note7
/note8 /note9 /note10;
#N canvas 1181 558 450 300 note 0;
#X obj 86 45 inlet;
#X floatatom 87 81 5 0 0 0 - - -;
#X obj 146 128 makenote;
#X obj 119 193 outlet;
#X obj 207 191 outlet;
#X msg 153 81 500;
#X obj 185 47 inlet;
#X obj 218 95 * 100;
#X connect 0 0 1 0;
#X connect 0 0 5 0;
#X connect 1 0 2 0;
#X connect 2 0 3 0;
#X connect 2 1 4 0;
#X connect 5 0 2 1;
#X connect 6 0 7 0;
#X connect 7 0 2 2;
#X restore 101 278 pd note;
#X obj 105 335 noteout;
#N canvas 1181 558 450 300 note 0;
#X obj 86 45 inlet;
#X floatatom 87 81 5 0 0 0 - - -;
#X obj 146 128 makenote;
#X obj 119 193 outlet;
#X obj 207 191 outlet;
#X msg 153 81 500;
#X obj 182 41 inlet;
#X obj 215 89 * 100;
#X connect 0 0 1 0;
#X connect 0 0 5 0;
#X connect 1 0 2 0;
#X connect 2 0 3 0;
#X connect 2 1 4 0;
#X connect 5 0 2 1;
#X connect 6 0 7 0;
#X connect 7 0 2 2;
#X restore 174 282 pd note;
#X obj 178 339 noteout;
#N canvas 1181 558 450 300 note 0;
#X obj 86 45 inlet;
#X floatatom 87 81 5 0 0 0 - - -;
#X obj 146 128 makenote;
#X obj 119 193 outlet;
#X obj 207 191 outlet;
#X msg 153 81 500;
#X obj 173 33 inlet;
#X obj 206 81 * 100;
#X connect 0 0 1 0;
#X connect 0 0 5 0;
#X connect 1 0 2 0;
#X connect 2 0 3 0;
#X connect 2 1 4 0;
#X connect 5 0 2 1;
#X connect 6 0 7 0;
#X connect 7 0 2 2;
#X restore 238 279 pd note;
#X obj 242 336 noteout;
#N canvas 1181 558 450 300 note 0;
#X obj 86 45 inlet;
#X floatatom 87 81 5 0 0 0 - - -;
#X obj 146 128 makenote;
#X obj 119 193 outlet;
#X obj 207 191 outlet;
#X msg 153 81 500;
#X obj 175 34 inlet;
#X obj 208 82 * 100;
#X connect 0 0 1 0;
#X connect 0 0 5 0;
#X connect 1 0 2 0;
#X connect 2 0 3 0;
#X connect 2 1 4 0;
#X connect 5 0 2 1;
#X connect 6 0 7 0;
#X connect 7 0 2 2;
#X restore 300 279 pd note;
#X obj 302 338 noteout;
#N canvas 1181 558 450 300 note 0;
#X obj 86 45 inlet;
#X floatatom 87 81 5 0 0 0 - - -;
#X obj 146 128 makenote;
#X obj 119 193 outlet;
#X obj 207 191 outlet;
#X msg 153 81 500;
#X obj 185 44 inlet;
#X obj 218 92 * 100;
#X connect 0 0 1 0;
#X connect 0 0 5 0;
#X connect 1 0 2 0;
#X connect 2 0 3 0;
#X connect 2 1 4 0;
#X connect 5 0 2 1;
#X connect 6 0 7 0;
#X connect 7 0 2 2;
#X restore 363 283 pd note;
#X obj 367 340 noteout;
#N canvas 1181 558 450 300 note 0;
#X obj 86 45 inlet;
#X floatatom 87 81 5 0 0 0 - - -;
#X obj 146 128 makenote;
#X obj 119 193 outlet;
#X obj 207 191 outlet;
#X msg 153 81 500;
#X obj 176 38 inlet;
#X obj 209 86 * 100;
#X connect 0 0 1 0;
#X connect 0 0 5 0;
#X connect 1 0 2 0;
#X connect 2 0 3 0;
#X connect 2 1 4 0;
#X connect 5 0 2 1;
#X connect 6 0 7 0;
#X connect 7 0 2 2;
#X restore 425 283 pd note;
#X obj 429 340 noteout;
#N canvas 1181 558 450 300 note 0;
#X obj 86 45 inlet;
#X floatatom 87 81 5 0 0 0 - - -;
#X obj 146 128 makenote;
#X obj 119 193 outlet;
#X obj 207 191 outlet;
#X msg 153 81 500;
#X obj 181 45 inlet;
#X obj 214 93 * 100;
#X connect 0 0 1 0;
#X connect 0 0 5 0;
#X connect 1 0 2 0;
#X connect 2 0 3 0;
#X connect 2 1 4 0;
#X connect 5 0 2 1;
#X connect 6 0 7 0;
#X connect 7 0 2 2;
#X restore 491 283 pd note;
#X obj 495 340 noteout;
#N canvas 1181 558 450 300 note 0;
#X obj 86 45 inlet;
#X floatatom 87 81 5 0 0 0 - - -;
#X obj 146 128 makenote;
#X obj 119 193 outlet;
#X obj 207 191 outlet;
#X msg 153 81 500;
#X obj 176 37 inlet;
#X obj 209 85 * 100;
#X connect 0 0 1 0;
#X connect 0 0 5 0;
#X connect 1 0 2 0;
#X connect 2 0 3 0;
#X connect 2 1 4 0;
#X connect 5 0 2 1;
#X connect 6 0 7 0;
#X connect 7 0 2 2;
#X restore 569 281 pd note;
#X obj 573 338 noteout;
#N canvas 1181 558 450 300 note 0;
#X obj 86 45 inlet;
#X floatatom 87 81 5 0 0 0 - - -;
#X obj 146 128 makenote;
#X obj 119 193 outlet;
#X obj 207 191 outlet;
#X msg 153 81 500;
#X obj 175 37 inlet;
#X obj 208 85 * 100;
#X connect 0 0 1 0;
#X connect 0 0 5 0;
#X connect 1 0 2 0;
#X connect 2 0 3 0;
#X connect 2 1 4 0;
#X connect 5 0 2 1;
#X connect 6 0 7 0;
#X connect 7 0 2 2;
#X restore 640 281 pd note;
#X obj 644 338 noteout;
#X floatatom 114 402 5 0 0 0 - - -;
#X floatatom 165 393 5 0 0 0 - - -;
#X floatatom 217 389 5 0 0 0 - - -;
#X floatatom 269 394 5 0 0 0 - - -;
#X floatatom 318 394 5 0 0 0 - - -;
#X floatatom 365 404 5 0 0 0 - - -;
#X floatatom 407 394 5 0 0 0 - - -;
#X floatatom 456 397 5 0 0 0 - - -;
#X floatatom 496 407 5 0 0 0 - - -;
#X floatatom 542 408 5 0 0 0 - - -;
#X msg -295 83 1;
#X msg -218 58 0;
#X obj -297 44 bng 15 250 50 0 empty empty empty 17 7 0 10 -262144
-1 -1;
#X obj -218 19 bng 15 250 50 0 empty empty empty 17 7 0 10 -262144
-1 -1;
#X msg -273 117 send /Piece1 \$1;
#X obj 305 -85 outlet;
#X msg -246 88 -1;
#X msg -155 83 1;
#X msg -78 58 0;
#X obj -157 44 bng 15 250 50 0 empty empty empty 17 7 0 10 -262144
-1 -1;
#X obj -78 19 bng 15 250 50 0 empty empty empty 17 7 0 10 -262144 -1
-1;
#X msg -106 88 -1;
#X msg -133 117 send /Piece2 \$1;
#X msg -22 81 1;
#X msg 55 56 0;
#X obj -24 42 bng 15 250 50 0 empty empty empty 17 7 0 10 -262144 -1
-1;
#X obj 55 17 bng 15 250 50 0 empty empty empty 17 7 0 10 -262144 -1
-1;
#X msg 27 86 -1;
#X msg 0 115 send /Piece3 \$1;
#X msg 106 76 1;
#X msg 183 51 0;
#X obj 104 37 bng 15 250 50 0 empty empty empty 17 7 0 10 -262144 -1
-1;
#X obj 183 12 bng 15 250 50 0 empty empty empty 17 7 0 10 -262144 -1
-1;
#X msg 155 81 -1;
#X msg 128 110 send /Piece4 \$1;
#X msg 233 77 1;
#X msg 310 52 0;
#X obj 231 38 bng 15 250 50 0 empty empty empty 17 7 0 10 -262144 -1
-1;
#X obj 310 13 bng 15 250 50 0 empty empty empty 17 7 0 10 -262144 -1
-1;
#X msg 282 82 -1;
#X msg 255 111 send /Piece5 \$1;
#X msg 367 76 1;
#X msg 444 51 0;
#X obj 365 37 bng 15 250 50 0 empty empty empty 17 7 0 10 -262144 -1
-1;
#X obj 444 12 bng 15 250 50 0 empty empty empty 17 7 0 10 -262144 -1
-1;
#X msg 416 81 -1;
#X msg 490 77 1;
#X msg 567 52 0;
#X obj 488 38 bng 15 250 50 0 empty empty empty 17 7 0 10 -262144 -1
-1;
#X obj 567 13 bng 15 250 50 0 empty empty empty 17 7 0 10 -262144 -1
-1;
#X msg 539 82 -1;
#X msg 512 111 send /Piece7 \$1;
#X msg 389 110 send /Piece6 \$1;
#X msg 624 83 1;
#X msg 701 58 0;
#X obj 622 44 bng 15 250 50 0 empty empty empty 17 7 0 10 -262144 -1
-1;
#X obj 701 19 bng 15 250 50 0 empty empty empty 17 7 0 10 -262144 -1
-1;
#X msg 673 88 -1;
#X msg 646 117 send /Piece8 \$1;
#X msg 746 81 1;
#X msg 823 56 0;
#X obj 744 42 bng 15 250 50 0 empty empty empty 17 7 0 10 -262144 -1
-1;
#X obj 823 17 bng 15 250 50 0 empty empty empty 17 7 0 10 -262144 -1
-1;
#X msg 795 86 -1;
#X msg 768 115 send /Piece9 \$1;
#X msg 870 81 1;
#X msg 947 56 0;
#X obj 868 42 bng 15 250 50 0 empty empty empty 17 7 0 10 -262144 -1
-1;
#X obj 947 17 bng 15 250 50 0 empty empty empty 17 7 0 10 -262144 -1
-1;
#X msg 919 86 -1;
#X msg 892 115 send /Piece10 \$1;
#X connect 0 0 23 0;
#X connect 1 0 2 0;
#X connect 1 1 2 1;
#X connect 3 0 1 0;
#X connect 4 0 3 0;
#X connect 5 0 26 0;
#X connect 6 0 5 0;
#X connect 7 0 28 0;
#X connect 8 0 30 0;
#X connect 9 0 8 0;
#X connect 10 0 32 0;
#X connect 11 0 10 0;
#X connect 12 0 34 0;
#X connect 13 0 12 0;
#X connect 14 0 36 0;
#X connect 15 0 14 0;
#X connect 16 0 38 0;
#X connect 17 0 16 0;
#X connect 18 0 40 0;
#X connect 19 0 42 0;
#X connect 20 0 7 0;
#X connect 21 0 18 0;
#X connect 22 0 19 0;
#X connect 23 0 4 0;
#X connect 23 1 6 0;
#X connect 23 2 20 0;
#X connect 23 3 9 0;
#X connect 23 4 11 0;
#X connect 23 5 13 0;
#X connect 23 6 15 0;
#X connect 23 7 17 0;
#X connect 23 8 21 0;
#X connect 23 9 22 0;
#X connect 24 0 25 0;
#X connect 25 0 44 0;
#X connect 25 1 45 0;
#X connect 25 2 46 0;
#X connect 25 3 47 0;
#X connect 25 4 48 0;
#X connect 25 5 49 0;
#X connect 25 6 50 0;
#X connect 25 7 51 0;
#X connect 25 8 52 0;
#X connect 25 9 53 0;
#X connect 26 0 27 0;
#X connect 26 1 27 1;
#X connect 28 0 29 0;
#X connect 28 1 29 1;
#X connect 30 0 31 0;
#X connect 30 1 31 1;
#X connect 32 0 33 0;
#X connect 32 1 33 1;
#X connect 34 0 35 0;
#X connect 34 1 35 1;
#X connect 36 0 37 0;
#X connect 36 1 37 1;
#X connect 38 0 39 0;
#X connect 38 1 39 1;
#X connect 40 0 41 0;
#X connect 40 1 41 1;
#X connect 42 0 43 0;
#X connect 42 1 43 1;
#X connect 44 0 1 1;
#X connect 45 0 26 1;
#X connect 46 0 28 1;
#X connect 47 0 30 1;
#X connect 48 0 32 1;
#X connect 49 0 34 1;
#X connect 50 0 36 1;
#X connect 51 0 38 1;
#X connect 52 0 40 1;
#X connect 53 0 42 1;
#X connect 54 0 58 0;
#X connect 54 0 4 0;
#X connect 55 0 4 0;
#X connect 55 0 60 0;
#X connect 56 0 54 0;
#X connect 57 0 55 0;
#X connect 58 0 59 0;
#X connect 60 0 58 0;
#X connect 61 0 66 0;
#X connect 61 0 6 0;
#X connect 62 0 65 0;
#X connect 62 0 6 0;
#X connect 63 0 61 0;
#X connect 64 0 62 0;
#X connect 65 0 66 0;
#X connect 66 0 59 0;
#X connect 67 0 72 0;
#X connect 67 0 20 0;
#X connect 68 0 71 0;
#X connect 68 0 20 0;
#X connect 69 0 67 0;
#X connect 70 0 68 0;
#X connect 71 0 72 0;
#X connect 72 0 59 0;
#X connect 73 0 78 0;
#X connect 73 0 9 0;
#X connect 74 0 77 0;
#X connect 74 0 9 0;
#X connect 75 0 73 0;
#X connect 76 0 74 0;
#X connect 77 0 78 0;
#X connect 78 0 59 0;
#X connect 79 0 84 0;
#X connect 79 0 11 0;
#X connect 80 0 83 0;
#X connect 80 0 11 0;
#X connect 81 0 79 0;
#X connect 82 0 80 0;
#X connect 83 0 84 0;
#X connect 84 0 59 0;
#X connect 85 0 96 0;
#X connect 85 0 13 0;
#X connect 86 0 89 0;
#X connect 86 0 13 0;
#X connect 87 0 85 0;
#X connect 88 0 86 0;
#X connect 89 0 96 0;
#X connect 90 0 95 0;
#X connect 90 0 15 0;
#X connect 91 0 94 0;
#X connect 91 0 15 0;
#X connect 92 0 90 0;
#X connect 93 0 91 0;
#X connect 94 0 95 0;
#X connect 95 0 59 0;
#X connect 96 0 59 0;
#X connect 97 0 102 0;
#X connect 97 0 17 0;
#X connect 98 0 101 0;
#X connect 98 0 17 0;
#X connect 99 0 97 0;
#X connect 100 0 98 0;
#X connect 101 0 102 0;
#X connect 102 0 59 0;
#X connect 103 0 108 0;
#X connect 103 0 21 0;
#X connect 104 0 107 0;
#X connect 104 0 21 0;
#X connect 105 0 103 0;
#X connect 106 0 104 0;
#X connect 107 0 108 0;
#X connect 108 0 59 0;
#X connect 109 0 114 0;
#X connect 109 0 22 0;
#X connect 110 0 113 0;
#X connect 110 0 22 0;
#X connect 111 0 109 0;
#X connect 112 0 110 0;
#X connect 113 0 114 0;
#X connect 114 0 59 0;
#X restore 562 833 pd cake;
#X obj 562 786 r msg;
#X obj 502 827 print;
#X obj 175 149 *~;
#X obj 211 190 dac~;
#X obj 121 621 phasor~;
#X obj 285 623 phasor~;
#X obj 792 640 phasor~;
#X obj 42 576 * 1;
#X obj 206 578 * 2;
#X obj 1031 608 * 8;
#X obj 867 606 * 6;
#X obj 366 584 * 4;
#X obj 126 578 / 16;
#X obj 290 580 / 8;
#X obj 797 597 / 4;
#X obj 951 608 / 2;
#X obj 946 651 phasor~;
#X obj 1110 653 phasor~;
#X obj 1115 610 / 1;
#X obj 345 60 bng 15 250 50 0 empty empty empty 17 7 0 10 -262144 -1
-1;
#X floatatom 332 92 5 0 0 0 - - -;
#X obj 350 11 OSCroute /mean /Left /Right;
#X obj 237 149 *~;
#X obj 228 69 bng 15 250 50 0 empty empty empty 17 7 0 10 -262144 -1
-1;
#X msg 227 91 1;
#X obj 186 64 / 1;
#X connect 1 0 0 0;
#X connect 2 0 0 0;
#X connect 3 0 5 0;
#X connect 4 0 9 0;
#X connect 4 0 74 0;
#X connect 6 0 88 0;
#X connect 7 0 15 0;
#X connect 8 0 10 0;
#X connect 8 0 79 0;
#X connect 9 0 0 0;
#X connect 10 0 0 0;
#X connect 11 0 13 0;
#X connect 11 0 75 0;
#X connect 12 0 14 0;
#X connect 12 0 80 0;
#X connect 13 0 0 0;
#X connect 14 0 0 0;
#X connect 15 0 4 0;
#X connect 15 1 8 0;
#X connect 15 2 11 0;
#X connect 15 3 12 0;
#X connect 15 4 16 0;
#X connect 15 5 17 0;
#X connect 15 6 18 0;
#X connect 15 7 19 0;
#X connect 15 8 24 0;
#X connect 15 9 25 0;
#X connect 16 0 20 0;
#X connect 16 0 78 0;
#X connect 17 0 21 0;
#X connect 17 0 81 0;
#X connect 18 0 22 0;
#X connect 18 0 77 0;
#X connect 19 0 23 0;
#X connect 19 0 82 0;
#X connect 20 0 0 0;
#X connect 21 0 0 0;
#X connect 22 0 0 0;
#X connect 23 0 0 0;
#X connect 24 0 26 0;
#X connect 24 0 76 0;
#X connect 25 0 27 0;
#X connect 25 0 85 0;
#X connect 26 0 0 0;
#X connect 27 0 0 0;
#X connect 28 0 69 0;
#X connect 28 0 89 0;
#X connect 30 0 33 0;
#X connect 31 0 34 0;
#X connect 32 0 33 1;
#X connect 33 0 29 0;
#X connect 33 0 29 1;
#X connect 34 0 32 0;
#X connect 34 1 35 0;
#X connect 34 2 36 0;
#X connect 34 3 37 0;
#X connect 34 4 38 0;
#X connect 34 5 39 0;
#X connect 34 6 40 0;
#X connect 34 7 41 0;
#X connect 34 8 42 0;
#X connect 34 9 43 0;
#X connect 35 0 45 1;
#X connect 36 0 48 1;
#X connect 37 0 50 1;
#X connect 38 0 63 1;
#X connect 39 0 65 1;
#X connect 40 0 53 1;
#X connect 41 0 55 1;
#X connect 42 0 58 1;
#X connect 43 0 60 1;
#X connect 45 0 44 0;
#X connect 45 0 44 1;
#X connect 47 0 48 0;
#X connect 48 0 46 0;
#X connect 48 0 46 1;
#X connect 50 0 49 0;
#X connect 50 0 49 1;
#X connect 52 0 53 0;
#X connect 53 0 51 0;
#X connect 53 0 51 1;
#X connect 55 0 54 0;
#X connect 55 0 54 1;
#X connect 57 0 58 0;
#X connect 58 0 56 0;
#X connect 58 0 56 1;
#X connect 60 0 59 0;
#X connect 60 0 59 1;
#X connect 62 0 63 0;
#X connect 63 0 61 0;
#X connect 63 0 61 1;
#X connect 65 0 64 0;
#X connect 65 0 64 1;
#X connect 66 0 0 0;
#X connect 66 0 68 0;
#X connect 67 0 66 1;
#X connect 67 0 66 0;
#X connect 69 0 70 0;
#X connect 71 0 45 0;
#X connect 72 0 50 0;
#X connect 73 0 65 0;
#X connect 74 0 30 0;
#X connect 75 0 47 0;
#X connect 76 0 57 0;
#X connect 77 0 52 0;
#X connect 78 0 62 0;
#X connect 79 0 71 0;
#X connect 80 0 72 0;
#X connect 81 0 73 0;
#X connect 82 0 83 0;
#X connect 83 0 55 0;
#X connect 84 0 60 0;
#X connect 85 0 84 0;
#X connect 86 0 87 0;
#X connect 87 0 69 1;
#X connect 87 0 89 1;
#X connect 88 0 92 0;
#X connect 88 1 69 1;
#X connect 88 2 89 1;
#X connect 89 0 70 1;
#X connect 90 0 91 0;
#X connect 91 0 69 1;
#X connect 92 0 28 0;
